<svg xmlns="http://www.w3.org/2000/svg" viewBox="0 0 1400 1000" role="img" aria-label="Illustrazione di San Cataldo e casa vacanze nel Salento">
  <defs>
    <linearGradient id="bg" x1="0" x2="0" y1="0" y2="1">
      <stop offset="0" stop-color="#93ceda"/>
      <stop offset=".62" stop-color="#f3eadb"/>
      <stop offset="1" stop-color="#cdb48e"/>
    </linearGradient>
  </defs>
  <rect width="1400" height="1000" fill="url(#bg)"/>
  <circle cx="1135" cy="165" r="78" fill="#fff0bb"/>
  <path d="M0 570 C210 520 345 560 540 515 C740 468 910 505 1400 440 L1400 1000 L0 1000 Z" fill="#5aa8b8"/>
  <path d="M0 650 C250 600 470 650 720 605 C980 558 1155 598 1400 545 L1400 1000 L0 1000 Z" fill="#2d7887" opacity=".82"/>
  <path d="M130 715 C260 675 455 690 570 725 C710 765 900 750 1060 710 C1180 680 1300 700 1400 740 L1400 1000 L0 1000 L0 770 C40 748 82 730 130 715 Z" fill="#efe2c8"/>
  <path d="M300 525 L585 370 L875 525 L875 765 L300 765 Z" fill="#fffdf8"/>
  <path d="M260 535 L585 330 L915 535 L875 565 L585 420 L300 565 Z" fill="#7f9b82"/>
  <rect x="395" y="610" width="112" height="155" rx="8" fill="#334d50"/>
  <rect x="590" y="600" width="195" height="98" rx="8" fill="#8fc9d8"/>
  <rect x="615" y="622" width="58" height="58" fill="#fffdf8" opacity=".72"/>
  <rect x="705" y="622" width="58" height="58" fill="#fffdf8" opacity=".72"/>
  <path d="M1045 545 C1008 620 998 700 1016 780" stroke="#335d3c" stroke-width="22" fill="none" stroke-linecap="round"/>
  <path d="M1025 548 C948 502 900 457 866 400 C943 402 1014 442 1064 515 Z" fill="#7f9b82"/>
  <path d="M1072 545 C1145 500 1212 475 1275 470 C1235 535 1168 575 1084 595 Z" fill="#8fb28f"/>
  <path d="M1062 512 C1064 435 1083 378 1126 332 C1158 410 1148 482 1082 550 Z" fill="#6f956f"/>
</svg>
